<?xml version="1.0" encoding="utf-8"?>
<!-- Generator: Adobe Illustrator 16.0.0, SVG Export Plug-In . SVG Version: 6.00 Build 0)  -->
<!DOCTYPE svg PUBLIC "-//W3C//DTD SVG 1.1//EN" "http://www.w3.org/Graphics/SVG/1.1/DTD/svg11.dtd">
<svg version="1.1" id="Layer_1" xmlns="http://www.w3.org/2000/svg" xmlns:xlink="http://www.w3.org/1999/xlink" x="0px" y="0px"
	 width="220.333px" height="149.667px" viewBox="0 0 220.333 149.667" enable-background="new 0 0 220.333 149.667"
	 xml:space="preserve">
<g>
	<g>
		<polygon fill="#009FC2" points="10.333,19.311 5.158,4.435 3.349,4.435 10.283,24.366 17.293,4.435 15.481,4.435 		"/>
		<rect x="19.849" y="4.435" fill="#009FC2" width="1.772" height="18.701"/>
		<path fill="#009FC2" d="M34.592,13.942l-3.463-1.805l-0.139-0.065c-1.381-0.654-2.946-1.396-2.946-3.034
			c0-1.762,1.359-3.142,3.095-3.142c1.449,0,2.563,0.65,3.405,1.988l0.188,0.298l1.288-1.06l-0.126-0.226
			c-0.908-1.642-2.746-2.703-4.682-2.703c-2.862,0-4.939,2.057-4.939,4.892c0,1.491,0.678,2.67,2.037,3.511l3.268,1.73l0.331,0.162
			c1.472,0.715,3.141,1.525,3.141,3.229c0,2.145-1.901,3.957-4.151,3.957c-2.354,0-3.514-1.667-4.075-3.064l-0.119-0.301
			l-1.568,0.705l0.098,0.271c0.911,2.523,3.062,4.09,5.615,4.09c3.237,0,5.971-2.547,5.971-5.562
			C36.82,16.132,36.119,14.906,34.592,13.942z"/>
		<rect x="40.415" y="4.435" fill="#009FC2" width="1.773" height="18.701"/>
		<polygon fill="#009FC2" points="44.895,4.435 44.895,6.137 49.57,6.137 49.57,23.136 51.344,23.136 51.344,6.137 56.019,6.137 
			56.019,4.435 		"/>
	</g>
	<g>
		<path d="M13.988,45.092c-3.762-1.318-8.083-3.303-8.083-6.983c0-4.2,3.361-7.247,7.99-7.247c3.483,0,6.201,1.631,7.456,4.478
			l0.113,0.255l0.256-0.109l1.301-0.556l0.257-0.111l-0.109-0.258c-1.526-3.595-4.908-5.655-9.274-5.655
			c-5.763,0-9.947,3.872-9.947,9.204c0,4.944,5.019,7.309,9.391,8.817c3.762,1.315,8.082,3.298,8.082,6.982
			c0,4.199-3.36,7.247-7.989,7.247c-3.484,0-6.201-1.632-7.456-4.479l-0.113-0.254l-0.256,0.109l-1.301,0.556l-0.258,0.112
			l0.11,0.257c1.526,3.595,4.906,5.655,9.274,5.655c5.762,0,9.947-3.872,9.947-9.204C23.378,48.962,18.359,46.599,13.988,45.092z"/>
		<path d="M121.368,45.092c-3.762-1.318-8.082-3.302-8.082-6.983c0-4.2,3.361-7.247,7.99-7.247c3.482,0,6.201,1.631,7.456,4.478
			l0.111,0.255l0.257-0.109l1.302-0.556l0.257-0.111l-0.109-0.258c-1.526-3.595-4.907-5.655-9.273-5.655
			c-5.763,0-9.947,3.872-9.947,9.204c0,4.944,5.019,7.309,9.39,8.817c3.763,1.315,8.083,3.298,8.083,6.982
			c0,4.199-3.359,7.247-7.99,7.247c-3.483,0-6.201-1.632-7.459-4.479l-0.111-0.254l-0.255,0.109l-1.301,0.556l-0.257,0.112
			l0.109,0.257c1.526,3.595,4.908,5.655,9.274,5.655c5.762,0,9.946-3.872,9.946-9.204C130.758,48.964,125.739,46.599,121.368,45.092
			z"/>
		<polygon points="191.442,29.461 169.787,29.461 169.505,29.461 169.505,29.743 169.505,31.139 169.505,31.42 169.787,31.42 
			179.636,31.42 179.636,62.273 179.636,62.554 179.918,62.554 181.314,62.554 181.595,62.554 181.595,62.273 181.595,31.42 
			191.442,31.42 191.724,31.42 191.724,31.139 191.724,29.743 191.724,29.461 		"/>
		<g>
			<path d="M151.358,28.271c-9.354,0-16.964,7.61-16.964,16.963c0,1.626,0.233,3.238,0.689,4.79l0.061,0.202h0.209h1.469h0.388
				l-0.119-0.368c-0.492-1.515-0.74-3.069-0.74-4.624c0-8.275,6.73-15.007,15.008-15.007c8.273,0,15.005,6.731,15.005,15.007
				c0,1.555-0.248,3.112-0.738,4.625l-0.121,0.369h0.388l1.472-0.002h0.208l0.061-0.202c0.457-1.551,0.689-3.163,0.689-4.79
				C168.321,35.881,160.711,28.271,151.358,28.271z"/>
			<polygon fill="#009FC2" points="167.265,51.726 135.448,51.726 135.167,51.726 135.167,52.007 135.167,53.556 135.167,53.837 
				135.448,53.837 167.265,53.837 167.546,53.837 167.546,53.556 167.546,52.007 167.546,51.726 			"/>
			<path fill="#FFD200" d="M139.283,50.231h24.152c0.639-1.544,0.995-3.235,0.995-5.012c0-7.23-5.84-13.07-13.072-13.07
				c-7.23,0-13.07,5.84-13.07,13.07C138.288,46.996,138.644,48.687,139.283,50.231z"/>
		</g>
		<g>
			<polygon fill="#009FC2" points="47.396,51.729 47.201,51.729 32.805,51.729 32.611,51.729 32.542,51.909 31.958,53.457 
				31.815,53.837 32.223,53.837 47.785,53.837 48.191,53.837 48.048,53.457 47.465,51.909 47.396,51.729 			"/>
			<polygon points="40.003,28.156 39.74,28.855 31.063,51.909 30.48,53.457 27.286,61.942 27.187,62.209 27.455,62.306 
				28.757,62.77 29.017,62.862 29.114,62.604 32.485,53.655 33.069,52.108 40.003,33.702 46.939,52.108 47.521,53.655 
				50.893,62.604 50.99,62.862 51.25,62.77 52.552,62.306 52.821,62.209 52.72,61.942 49.526,53.457 48.943,51.909 40.267,28.855 
				40.003,28.156 			"/>
		</g>
		<g>
			<polygon fill="#009FC2" points="209.947,51.729 209.752,51.729 195.357,51.729 195.163,51.729 195.092,51.909 194.51,53.457 
				194.367,53.837 194.772,53.837 210.335,53.837 210.743,53.837 210.6,53.457 210.015,51.909 209.947,51.729 			"/>
			<polygon points="202.554,28.156 202.292,28.855 193.615,51.909 193.032,53.457 189.837,61.942 189.736,62.209 190.007,62.306 
				191.309,62.77 191.569,62.862 191.666,62.604 195.037,53.655 195.62,52.108 202.554,33.702 209.491,52.108 210.073,53.655 
				213.445,62.604 213.542,62.862 213.801,62.77 215.102,62.306 215.374,62.209 215.272,61.942 212.078,53.457 211.496,51.909 
				202.818,28.855 202.554,28.156 			"/>
		</g>
		<g>
			<polygon fill="#009FC2" points="102.217,51.729 102.022,51.729 87.625,51.729 87.431,51.729 87.363,51.909 86.781,53.457 
				86.636,53.837 87.042,53.837 102.605,53.837 103.011,53.837 102.868,53.457 102.285,51.909 102.217,51.729 			"/>
			<polygon points="94.824,28.156 94.56,28.855 85.882,51.909 85.3,53.457 82.107,61.942 82.006,62.209 82.276,62.306 83.577,62.77 
				83.838,62.862 83.935,62.604 87.306,53.655 87.89,52.108 94.824,33.702 101.759,52.108 102.341,53.655 105.712,62.604 
				105.81,62.862 106.07,62.77 107.373,62.306 107.642,62.209 107.54,61.942 104.347,53.457 103.765,51.909 95.086,28.855 
				94.824,28.156 			"/>
		</g>
		<path d="M78.237,61.685l-8.641-11.358c4.947-1.817,8.002-5.562,8.002-9.847c0-2.921-1.437-5.649-4.047-7.681
			c-2.918-2.274-7.064-3.476-11.988-3.476c-1.113,0-2.458,0.052-3.598,0.14l-0.261,0.021v0.26v32.53v0.281h0.281h1.395h0.28v-0.281
			V51.511c0.662,0.04,1.288,0.076,1.903,0.076c2.256,0,4.28-0.221,6.023-0.66l9.087,11.935l0.17,0.221l0.223-0.167l1.114-0.835
			l0.228-0.171L78.237,61.685z M61.563,49.631c-0.571,0-1.263-0.039-1.903-0.077V31.313c0.683-0.032,1.328-0.032,1.903-0.032
			c9.672,0,14.077,4.767,14.077,9.198C75.64,44.887,71.236,49.631,61.563,49.631z"/>
		<path d="M13.913,68.982c-5.664,0-10.271,4.54-10.271,10.12c0,5.456,4.691,10.066,10.245,10.066c2.354,0,4.618-0.847,6.542-2.448
			l0.11-0.091v-2.667l-0.542,0.659c-1.313,1.595-3.962,2.797-6.163,2.797c-2.025,0-4.233-0.951-5.903-2.542
			c-1.589-1.563-2.463-3.578-2.463-5.673c0-4.59,3.831-8.467,8.366-8.467c2.271,0,4.747,1.164,6.162,2.896l0.543,0.667v-2.663
			l-0.098-0.091C18.686,69.917,16.306,68.982,13.913,68.982z"/>
		<path d="M32.407,68.982c-5.526,0-10.194,4.623-10.194,10.093s4.667,10.093,10.194,10.093c5.527,0,10.194-4.623,10.194-10.093
			S37.934,68.982,32.407,68.982z M32.407,87.418c-4.535,0-8.366-3.82-8.366-8.343c0-4.521,3.831-8.34,8.366-8.34
			c4.537,0,8.368,3.819,8.368,8.34C40.775,83.598,36.944,87.418,32.407,87.418z"/>
		<path d="M56.544,81.074c0,1.688,0,3.435-0.924,4.618c-0.914,1.187-2.73,1.727-4.03,1.727s-3.116-0.54-4.033-1.728
			c-0.921-1.182-0.921-2.928-0.921-4.617V69.235H44.81v12.192c0,2,0,3.727,1.367,5.413c1.281,1.458,3.306,2.329,5.414,2.329
			s4.132-0.871,5.423-2.338c1.357-1.677,1.357-3.403,1.357-5.403V69.235h-1.826V81.074z"/>
		<polygon points="77.594,85.413 61.586,68.52 61.586,88.916 63.415,88.916 63.415,72.997 79.421,90.016 79.421,69.235 
			77.594,69.235 		"/>
		<polygon points="81.423,70.988 86.354,70.988 86.354,88.916 88.18,88.916 88.18,70.988 93.111,70.988 93.111,69.235 
			81.423,69.235 		"/>
		<polygon points="107.155,69.235 101.717,78.592 96.281,69.235 94.231,69.235 100.804,80.55 100.804,88.916 102.631,88.916 
			102.631,80.55 109.204,69.235 		"/>
	</g>
	<g>
		<path fill="#009FC2" d="M115.098,83.139l-0.001,1.625l2.275,0.001v0.965l-2.274,0l0.001,3.219h-1.026l-0.002-6.773l3.382-0.001
			l0.001,0.963H115.098z"/>
		<path fill="#009FC2" d="M119.659,87.983l1.992-0.002l-0.002,0.966l-3.017,0l-0.003-6.773l1.025-0.001L119.659,87.983z"/>
		<path fill="#009FC2" d="M129.082,85.563c0,1.93-1.583,3.514-3.523,3.516c-1.99-0.001-3.555-1.533-3.556-3.493
			c-0.001-1.961,1.582-3.544,3.554-3.546C127.495,82.039,129.08,83.622,129.082,85.563z M123.027,85.573
			c0.001,1.423,1.119,2.54,2.521,2.54c1.392-0.001,2.509-1.137,2.509-2.54c-0.002-1.464-1.089-2.57-2.51-2.569
			C124.124,83.003,123.026,84.121,123.027,85.573z"/>
		<path fill="#009FC2" d="M134.748,88.941l-1.249,0.001l-1.93-2.772l-0.184-0.001v2.773l-1.025,0l-0.002-6.774l1.197,0.001
			c0.874,0,1.363,0.11,1.789,0.394c0.498,0.325,0.813,0.944,0.813,1.584c0,0.955-0.598,1.717-1.503,1.912L134.748,88.941z
			 M131.709,85.276c0.944,0,1.453-0.387,1.453-1.107c0-0.679-0.486-1.035-1.411-1.036h-0.367l0.001,2.143L131.709,85.276z"/>
		<path fill="#009FC2" d="M136.789,88.941l-1.026,0.001l-0.002-6.775l1.026,0L136.789,88.941z"/>
		<path fill="#009FC2" d="M138.412,82.167l1.421-0.001c1.167,0,1.848,0.183,2.51,0.659c0.853,0.619,1.311,1.585,1.312,2.741
			c0,1.139-0.477,2.083-1.361,2.723c-0.679,0.498-1.269,0.651-2.479,0.651l-1.401,0.001L138.412,82.167z M139.895,87.976
			c0.824,0,1.332-0.143,1.808-0.488c0.59-0.437,0.923-1.138,0.923-1.941c0.002-0.791-0.344-1.513-0.923-1.939
			c-0.447-0.334-0.985-0.476-1.809-0.476l-0.456,0l0.001,4.846H139.895z"/>
		<path fill="#009FC2" d="M145.674,87.293l-0.762,1.645l-1.098,0l3.351-7.201l3.232,7.199l-1.118,0.001l-0.71-1.645L145.674,87.293z
			 M147.145,84.032l-1.045,2.295l2.051,0L147.145,84.032z"/>
		<path fill="#009FC2" d="M152.294,82.214l-1.247,2.507l-0.673-0.274l1.036-2.58L152.294,82.214z"/>
		<path fill="#009FC2" d="M156.621,83.663c-0.315-0.518-0.547-0.67-1.016-0.669c-0.558-0.001-0.985,0.366-0.985,0.842
			c0.001,0.225,0.102,0.417,0.325,0.57c0.215,0.152,0.123,0.112,1.089,0.496c1.086,0.457,1.584,1.067,1.584,1.972
			c0.001,1.258-0.913,2.192-2.143,2.193c-1.209,0-2.012-0.73-2.194-1.998l1.035-0.235c0.053,0.406,0.093,0.568,0.193,0.743
			c0.175,0.323,0.56,0.527,0.977,0.527c0.639-0.001,1.106-0.479,1.106-1.128c-0.002-0.387-0.163-0.681-0.469-0.894
			c-0.152-0.103-0.325-0.192-0.496-0.265l-0.225-0.091l-0.213-0.091l-0.214-0.092c-0.934-0.395-1.392-0.952-1.391-1.703
			c-0.001-1.037,0.872-1.809,2.029-1.81c0.812,0,1.373,0.346,1.828,1.138L156.621,83.663z"/>
		<path fill="#009FC2" d="M167.671,85.406v0.314c0,0.884-0.183,1.494-0.599,2.063c-0.589,0.802-1.554,1.279-2.569,1.279
			c-1.9,0-3.454-1.572-3.454-3.503c-0.002-1.979,1.562-3.533,3.563-3.535c1.076,0,1.908,0.416,2.752,1.381l-0.73,0.701
			c-0.59-0.783-1.209-1.117-2.051-1.117c-1.413,0-2.509,1.128-2.508,2.569c-0.001,1.385,1.117,2.541,2.459,2.54
			c1.015-0.001,1.929-0.772,2.02-1.726l-1.686,0l-0.001-0.965L167.671,85.406z"/>
		<path fill="#009FC2" d="M169.975,86.238c0,0.6,0.051,0.883,0.215,1.168c0.244,0.427,0.73,0.69,1.27,0.689
			c0.527,0,1.016-0.264,1.259-0.69c0.162-0.285,0.213-0.569,0.213-1.168l-0.001-4.083l1.025,0.001l0.001,4.356
			c0,1.462-1.065,2.55-2.498,2.55c-1.442,0-2.509-1.086-2.509-2.548l-0.002-4.358h1.026L169.975,86.238z"/>
		<path fill="#009FC2" d="M176.606,87.962l1.992-0.001v0.965l-3.018,0.002l-0.002-6.774l1.026-0.001L176.606,87.962z"/>
		<path fill="#009FC2" d="M180.585,83.115l0.001,1.626l2.275-0.001v0.966l-2.273,0.002v3.219l-1.026,0.001l-0.002-6.774l3.382-0.001
			v0.964H180.585z"/>
		<path fill="#009FC2" d="M191.666,83.722c-0.64-0.528-1.158-0.741-1.837-0.741c-1.383,0-2.479,1.14-2.479,2.57
			c0.001,1.442,1.087,2.539,2.521,2.538c0.63,0,1.148-0.224,1.796-0.772l0.001,1.229c-0.599,0.345-1.188,0.508-1.816,0.508
			c-1.981,0.002-3.526-1.541-3.526-3.532c0-1.9,1.614-3.505,3.521-3.505c0.723,0.001,1.19,0.132,1.819,0.497V83.722z"/>
		<path fill="#009FC2" d="M199.65,85.538c0,1.93-1.583,3.514-3.522,3.514c-1.992,0-3.558-1.532-3.557-3.492
			c-0.001-1.961,1.583-3.545,3.554-3.546C198.064,82.013,199.649,83.598,199.65,85.538z M193.595,85.548
			c0.001,1.422,1.119,2.539,2.521,2.539c1.392-0.001,2.51-1.138,2.509-2.54c-0.002-1.464-1.088-2.57-2.51-2.57
			C194.692,82.979,193.595,84.097,193.595,85.548z"/>
		<path fill="#009FC2" d="M201.661,87.273l-0.761,1.645l-1.098,0l3.35-7.201l3.233,7.199h-1.118l-0.712-1.644L201.661,87.273z
			 M203.132,84.011l-1.045,2.297l2.052,0L203.132,84.011z"/>
		<path fill="#009FC2" d="M210.24,83.643c-0.313-0.517-0.548-0.67-1.015-0.669c-0.56,0.001-0.984,0.366-0.984,0.844
			c0,0.223,0.101,0.417,0.326,0.568c0.213,0.152,0.119,0.112,1.085,0.498c1.088,0.457,1.586,1.066,1.586,1.969
			c0,1.26-0.913,2.193-2.142,2.194c-1.209,0.001-2.014-0.73-2.196-2l1.037-0.234c0.051,0.405,0.091,0.569,0.193,0.742
			c0.172,0.325,0.557,0.528,0.975,0.527c0.64,0.001,1.108-0.477,1.107-1.127c0-0.386-0.162-0.68-0.468-0.894
			c-0.152-0.103-0.325-0.193-0.499-0.264l-0.223-0.092l-0.213-0.091l-0.215-0.092c-0.934-0.395-1.39-0.952-1.391-1.705
			c0-1.035,0.873-1.807,2.031-1.808c0.813-0.001,1.37,0.345,1.827,1.136L210.24,83.643z"/>
		<path fill="#009FC2" d="M214.457,88.914l-1.026,0l-0.002-5.809l-1.554,0l-0.002-0.964l4.135,0l0.001,0.963l-1.553,0.001
			L214.457,88.914z"/>
	</g>
</g>
<g>
	<path fill="#010101" d="M8.194,142.494c-0.393-0.319-0.933-0.491-1.45-0.491c-1.231,0-2.171,0.936-2.171,2.046
		c0,1.096,0.932,2.033,2.156,2.033c0.54,0,1.057-0.187,1.465-0.519v0.738c-0.422,0.226-0.962,0.352-1.443,0.352
		c-1.567,0-2.864-1.136-2.864-2.583c0-1.48,1.304-2.637,2.922-2.637c0.482,0,0.97,0.107,1.385,0.34V142.494z"/>
	<path fill="#010101" d="M9.937,145.29l-0.626,1.255H8.575l2.623-5.221l2.624,5.221h-0.737l-0.626-1.255H9.937z M11.198,142.693
		l-0.977,2.027h1.954L11.198,142.693z"/>
	<path fill="#010101" d="M16.869,142.486c-0.204-0.312-0.466-0.471-0.881-0.471c-0.437,0-0.919,0.272-0.919,0.711
		c0,0.391,0.422,0.597,0.766,0.717l0.394,0.139c0.779,0.279,1.361,0.67,1.361,1.507c0,0.91-0.771,1.561-1.755,1.561
		c-0.889,0-1.583-0.597-1.699-1.401l0.693-0.132c-0.007,0.551,0.475,0.949,1.064,0.949s1.012-0.451,1.012-0.976
		c0-0.539-0.474-0.771-0.947-0.95l-0.379-0.146c-0.626-0.247-1.196-0.572-1.196-1.268c0-0.811,0.788-1.296,1.619-1.296
		c0.612,0,1.114,0.272,1.413,0.757L16.869,142.486z"/>
	<path fill="#010101" d="M18.488,141.538h2.951v0.57h-2.267v1.402h2.202v0.571h-2.202v1.894h2.267v0.57h-2.951V141.538z"/>
	<path fill="#010101" d="M21.864,141.538h0.786l1.349,2.138l1.348-2.138h0.787l-1.792,2.829v2.179h-0.685v-2.179L21.864,141.538z"/>
	<path fill="#010101" d="M32.024,141.538h0.896l-2.47,2.251l2.514,2.756h-0.925l-2.07-2.332l-0.277,0.239v2.092h-0.685v-5.007h0.685
		v2.172L32.024,141.538z"/>
	<path fill="#010101" d="M33.526,141.538h2.951v0.57h-2.267v1.402h2.201v0.571h-2.201v1.894h2.267v0.57h-2.951V141.538z"/>
	<path fill="#010101" d="M36.901,141.538h0.788l1.347,2.138l1.349-2.138h0.787l-1.792,2.829v2.179h-0.686v-2.179L36.901,141.538z"/>
	<rect x="45.207" y="140.766" fill="#009FC2" width="0.78" height="6.795"/>
	<path fill="#010101" d="M51.531,143.238h-0.014l-0.641,3.307h-0.708l1.123-5.221l1.887,3.946l1.887-3.946l1.121,5.221H55.48
		l-0.641-3.307h-0.015l-1.647,3.414L51.531,143.238z"/>
	<path fill="#010101" d="M57.728,145.29l-0.627,1.255h-0.735l2.623-5.221l2.624,5.221h-0.736l-0.626-1.255H57.728z M58.987,142.693
		l-0.976,2.027h1.953L58.987,142.693z"/>
	<path fill="#010101" d="M62.152,141.298l4.124,3.938v-3.699h0.686v5.213l-4.125-3.938v3.732h-0.684V141.298z"/>
	<path fill="#010101" d="M68.866,145.29l-0.627,1.255h-0.735l2.623-5.221l2.624,5.221h-0.735l-0.627-1.255H68.866z M70.125,142.693
		l-0.976,2.027h1.953L70.125,142.693z"/>
	<path fill="#010101" d="M75.798,142.486c-0.204-0.312-0.466-0.471-0.882-0.471c-0.437,0-0.919,0.272-0.919,0.711
		c0,0.391,0.424,0.597,0.766,0.717l0.393,0.139c0.78,0.279,1.363,0.67,1.363,1.507c0,0.91-0.772,1.561-1.756,1.561
		c-0.89,0-1.582-0.597-1.698-1.401l0.691-0.132c-0.007,0.551,0.474,0.949,1.064,0.949c0.59,0,1.013-0.451,1.013-0.976
		c0-0.539-0.473-0.771-0.948-0.95l-0.378-0.146c-0.627-0.247-1.195-0.572-1.195-1.268c0-0.811,0.788-1.296,1.618-1.296
		c0.613,0,1.115,0.272,1.414,0.757L75.798,142.486z"/>
	<path fill="#010101" d="M82.787,144.041c0,1.488-1.29,2.61-2.878,2.61c-1.589,0-2.877-1.123-2.877-2.61
		c0-1.434,1.303-2.61,2.877-2.61C81.482,141.431,82.787,142.607,82.787,144.041z M82.101,144.041c0-1.103-0.903-2.025-2.193-2.025
		s-2.193,0.922-2.193,2.025c0,1.142,1.005,2.025,2.193,2.025S82.101,145.183,82.101,144.041z"/>
	<path fill="#010101" d="M85.077,146.545h-0.685v-4.437h-1.304v-0.57h3.293v0.57h-1.305V146.545z"/>
	<path fill="#010101" d="M87.266,145.29l-0.627,1.255h-0.735l2.623-5.221l2.624,5.221h-0.737l-0.626-1.255H87.266z M88.526,142.693
		l-0.976,2.027h1.953L88.526,142.693z"/>
	<path fill="#010101" d="M97.026,141.538h0.896l-2.47,2.251l2.513,2.756H97.04l-2.07-2.332l-0.276,0.239v2.092h-0.685v-5.007h0.685
		v2.172L97.026,141.538z"/>
	<path fill="#010101" d="M98.528,141.538h2.952v0.57h-2.267v1.402h2.202v0.571h-2.202v1.894h2.267v0.57h-2.952V141.538z"/>
	<path fill="#010101" d="M101.903,141.538h0.788l1.347,2.138l1.349-2.138h0.788l-1.792,2.829v2.179h-0.686v-2.179L101.903,141.538z"
		/>
	<rect x="110.208" y="140.766" fill="#009FC2" width="0.782" height="6.795"/>
	<path fill="#010101" d="M115.599,141.538h2.952v0.57h-2.268v1.402h2.202v0.571h-2.202v1.894h2.268v0.57h-2.952V141.538z"/>
	<path fill="#010101" d="M119.478,141.298l4.124,3.938v-3.699h0.686v5.213l-4.125-3.938v3.732h-0.685V141.298z"/>
	<path fill="#010101" d="M130.417,144.021v0.199c0,1.376-1.064,2.432-2.601,2.432c-1.538,0-2.777-1.208-2.777-2.597
		c0-1.442,1.269-2.624,2.849-2.624c0.854,0,1.699,0.352,2.238,0.971l-0.481,0.417c-0.394-0.492-1.057-0.817-1.728-0.817
		c-1.23,0-2.191,0.91-2.191,2.033c0,1.048,0.946,2.046,2.134,2.046c0.853,0,1.771-0.672,1.799-1.488h-1.42v-0.573H130.417z"/>
	<path fill="#010101" d="M131.928,145.975h1.669v0.57h-2.354v-5.007h0.685V145.975z"/>
	<path fill="#010101" d="M134.195,141.538h2.952v0.57h-2.268v1.402h2.202v0.571h-2.202v1.894h2.268v0.57h-2.952V141.538z"/>
	<path fill="#010101" d="M139.808,145.125l1.552-3.694l1.551,3.694l1.539-3.587h0.743l-2.282,5.206l-1.551-3.672l-1.552,3.672
		l-2.281-5.206h0.742L139.808,145.125z"/>
	<path fill="#010101" d="M151.142,144.041c0,1.488-1.29,2.61-2.879,2.61c-1.588,0-2.879-1.123-2.879-2.61
		c0-1.434,1.305-2.61,2.879-2.61C149.838,141.431,151.142,142.607,151.142,144.041z M150.458,144.041
		c0-1.103-0.903-2.025-2.194-2.025c-1.29,0-2.193,0.922-2.193,2.025c0,1.142,1.006,2.025,2.193,2.025
		S150.458,145.183,150.458,144.041z"/>
	<path fill="#010101" d="M157.324,144.041c0,1.488-1.29,2.61-2.879,2.61s-2.879-1.123-2.879-2.61c0-1.434,1.305-2.61,2.879-2.61
		S157.324,142.607,157.324,144.041z M156.639,144.041c0-1.103-0.904-2.025-2.194-2.025c-1.289,0-2.192,0.922-2.192,2.025
		c0,1.142,1.005,2.025,2.192,2.025S156.639,145.183,156.639,144.041z"/>
	<path fill="#010101" d="M158.076,141.538h1.138c1.683,0,3.081,0.811,3.081,2.478c0,1.707-1.37,2.529-3.104,2.529h-1.114V141.538z
		 M158.76,145.975H159c1.4,0,2.609-0.479,2.609-1.934c0-1.46-1.209-1.933-2.609-1.933h-0.24V145.975z"/>
	<rect x="166.542" y="140.766" fill="#009FC2" width="0.781" height="6.795"/>
	<path fill="#010101" d="M171.867,141.298l4.125,3.938v-3.699h0.685v5.213l-4.123-3.938v3.732h-0.687V141.298z"/>
	<path fill="#010101" d="M183.171,144.041c0,1.488-1.29,2.61-2.878,2.61c-1.589,0-2.879-1.123-2.879-2.61
		c0-1.434,1.305-2.61,2.879-2.61C181.867,141.431,183.171,142.607,183.171,144.041z M182.487,144.041
		c0-1.103-0.903-2.025-2.193-2.025c-1.289,0-2.193,0.922-2.193,2.025c0,1.142,1.005,2.025,2.193,2.025
		C181.481,146.066,182.487,145.183,182.487,144.041z"/>
	<path fill="#010101" d="M187.4,146.545h-0.83l-1.618-2.119h-0.283v2.119h-0.687v-5.007h0.832c0.487,0,1.013,0.007,1.45,0.233
		c0.458,0.245,0.721,0.716,0.721,1.194c0,0.718-0.524,1.315-1.319,1.401L187.4,146.545z M184.668,143.909h0.217
		c0.7,0,1.459-0.12,1.459-0.917c0-0.784-0.815-0.896-1.495-0.896h-0.181V143.909z"/>
	<path fill="#010101" d="M189.421,146.545h-0.685v-4.437h-1.306v-0.57h3.295v0.57h-1.305V146.545z"/>
	<path fill="#010101" d="M194.655,143.557v-2.02h0.686v5.007h-0.686v-2.404h-2.615v2.404h-0.685v-5.007h0.685v2.02H194.655z"/>
	<path fill="#010101" d="M199.417,146.545h-0.686v-5.007h0.786c1.692,0,2.216,0.532,2.216,1.448c0,1.056-0.882,1.461-1.923,1.461
		h-0.394V146.545z M199.417,143.888h0.218c0.7,0,1.457-0.119,1.457-0.916c0-0.784-0.815-0.876-1.494-0.876h-0.181V143.888z"/>
	<path fill="#010101" d="M207.856,144.041c0,1.488-1.291,2.61-2.879,2.61c-1.59,0-2.878-1.123-2.878-2.61
		c0-1.434,1.303-2.61,2.878-2.61C206.55,141.431,207.856,142.607,207.856,144.041z M207.171,144.041
		c0-1.103-0.905-2.025-2.194-2.025c-1.29,0-2.194,0.922-2.194,2.025c0,1.142,1.007,2.025,2.194,2.025
		S207.171,145.183,207.171,144.041z"/>
	<path fill="#010101" d="M212.084,146.545h-0.832l-1.617-2.119h-0.284v2.119h-0.685v-5.007h0.831c0.488,0,1.013,0.007,1.449,0.233
		c0.459,0.245,0.721,0.716,0.721,1.194c0,0.718-0.524,1.315-1.317,1.401L212.084,146.545z M209.351,143.909h0.22
		c0.699,0,1.456-0.12,1.456-0.917c0-0.784-0.815-0.896-1.492-0.896h-0.184V143.909z"/>
	<path fill="#010101" d="M214.106,146.545h-0.686v-4.437h-1.304v-0.57h3.294v0.57h-1.305V146.545z"/>
	<path fill="#010101" d="M4.886,135.975h1.668v0.57H4.201v-5.007h0.685V135.975z"/>
	<path fill="#010101" d="M12.378,134.04c0,1.488-1.291,2.612-2.878,2.612c-1.589,0-2.879-1.124-2.879-2.612
		c0-1.435,1.305-2.609,2.879-2.609C11.074,131.431,12.378,132.605,12.378,134.04z M11.693,134.04c0-1.102-0.904-2.025-2.193-2.025
		c-1.29,0-2.194,0.923-2.194,2.025c0,1.143,1.007,2.027,2.194,2.027C10.687,136.067,11.693,135.183,11.693,134.04z"/>
	<path fill="#010101" d="M12.978,131.297l4.124,3.939v-3.699h0.685v5.213l-4.124-3.939v3.733h-0.685V131.297z"/>
	<path fill="#010101" d="M23.771,134.021v0.199c0,1.376-1.063,2.432-2.602,2.432c-1.536,0-2.776-1.209-2.776-2.597
		c0-1.442,1.269-2.624,2.849-2.624c0.854,0,1.699,0.352,2.238,0.97L23,132.819c-0.393-0.493-1.057-0.818-1.728-0.818
		c-1.23,0-2.192,0.91-2.192,2.033c0,1.05,0.947,2.046,2.134,2.046c0.853,0,1.771-0.671,1.801-1.488h-1.421v-0.572H23.771z"/>
	<path fill="#010101" d="M24.393,131.538h0.67c1.036,0,2.012,0.245,2.012,1.374c0,0.366-0.218,0.791-0.591,0.95v0.013
		c0.649,0.107,1.101,0.685,1.101,1.268c0,1.002-0.939,1.402-1.909,1.402h-1.283V131.538z M25.077,133.756h0.175
		c0.649,0,1.181-0.12,1.181-0.837c0-0.704-0.526-0.824-1.167-0.824h-0.189V133.756z M25.077,135.987h0.526
		c0.634,0,1.297-0.172,1.297-0.884c0-0.704-0.788-0.849-1.4-0.849h-0.422V135.987z"/>
	<path fill="#010101" d="M33.722,134.04c0,1.488-1.29,2.612-2.878,2.612c-1.589,0-2.877-1.124-2.877-2.612
		c0-1.435,1.303-2.609,2.877-2.609C32.417,131.431,33.722,132.605,33.722,134.04z M33.036,134.04c0-1.102-0.903-2.025-2.193-2.025
		s-2.193,0.923-2.193,2.025c0,1.143,1.005,2.027,2.193,2.027C32.031,136.067,33.036,135.183,33.036,134.04z"/>
	<path fill="#010101" d="M35.167,135.29l-0.626,1.255h-0.738l2.624-5.221l2.624,5.221h-0.735l-0.627-1.255H35.167z M36.427,132.693
		l-0.976,2.025h1.953L36.427,132.693z"/>
	<path fill="#010101" d="M40.409,136.545h-0.686v-4.437h-1.303v-0.57h3.293v0.57h-1.304V136.545z"/>
	<path fill="#010101" d="M47.377,131.538h0.897l-2.471,2.25l2.515,2.757h-0.926l-2.069-2.332l-0.277,0.239v2.092H44.36v-5.007h0.686
		v2.171L47.377,131.538z"/>
	<path fill="#010101" d="M48.734,131.538h2.951v0.57h-2.266v1.4h2.199v0.573h-2.199v1.893h2.266v0.57h-2.951V131.538z"/>
	<path fill="#010101" d="M51.963,131.538h0.787l1.35,2.138l1.347-2.138h0.787l-1.792,2.829v2.178h-0.686v-2.178L51.963,131.538z"/>
	<rect x="59.978" y="130.729" fill="#009FC2" width="0.78" height="6.796"/>
	<path fill="#010101" d="M67.518,132.487c-0.204-0.312-0.466-0.472-0.881-0.472c-0.438,0-0.918,0.273-0.918,0.711
		c0,0.392,0.422,0.599,0.765,0.717l0.394,0.14c0.779,0.279,1.363,0.671,1.363,1.507c0,0.91-0.773,1.562-1.757,1.562
		c-0.889,0-1.58-0.6-1.697-1.403l0.692-0.131c-0.007,0.551,0.473,0.949,1.064,0.949c0.59,0,1.014-0.452,1.014-0.977
		c0-0.538-0.475-0.771-0.948-0.949l-0.379-0.146c-0.627-0.245-1.195-0.571-1.195-1.269c0-0.811,0.787-1.295,1.617-1.295
		c0.613,0,1.116,0.272,1.415,0.757L67.518,132.487z"/>
	<path fill="#010101" d="M69.771,135.29l-0.626,1.255h-0.737l2.623-5.221l2.624,5.221h-0.735l-0.626-1.255H69.771z M71.031,132.693
		l-0.976,2.025h1.953L71.031,132.693z"/>
	<path fill="#010101" d="M77.533,136.545h-0.83l-1.619-2.119H74.8v2.119h-0.685v-5.007h0.83c0.488,0,1.013,0.006,1.45,0.232
		c0.46,0.245,0.722,0.717,0.722,1.195c0,0.717-0.524,1.315-1.319,1.402L77.533,136.545z M74.8,133.908h0.218
		c0.7,0,1.458-0.12,1.458-0.916c0-0.784-0.816-0.897-1.495-0.897H74.8V133.908z"/>
	<path fill="#010101" d="M78.854,135.29l-0.626,1.255h-0.736l2.624-5.221l2.623,5.221h-0.735l-0.626-1.255H78.854z M80.114,132.693
		l-0.977,2.025h1.954L80.114,132.693z"/>
	<path fill="#010101" d="M85.64,132.487c-0.204-0.312-0.466-0.472-0.882-0.472c-0.437,0-0.918,0.273-0.918,0.711
		c0,0.392,0.422,0.599,0.766,0.717l0.395,0.14c0.779,0.279,1.362,0.671,1.362,1.507c0,0.91-0.772,1.562-1.756,1.562
		c-0.889,0-1.581-0.6-1.698-1.403l0.692-0.131c-0.007,0.551,0.475,0.949,1.064,0.949c0.591,0,1.013-0.452,1.013-0.977
		c0-0.538-0.473-0.771-0.948-0.949l-0.379-0.146c-0.626-0.245-1.195-0.571-1.195-1.269c0-0.811,0.787-1.295,1.619-1.295
		c0.611,0,1.114,0.272,1.413,0.757L85.64,132.487z"/>
	<path fill="#010101" d="M92.483,134.04c0,1.488-1.29,2.612-2.879,2.612c-1.588,0-2.877-1.124-2.877-2.612
		c0-1.435,1.304-2.609,2.877-2.609C91.179,131.431,92.483,132.605,92.483,134.04z M91.797,134.04c0-1.102-0.903-2.025-2.193-2.025
		s-2.193,0.923-2.193,2.025c0,1.143,1.005,2.027,2.193,2.027S91.797,135.183,91.797,134.04z"/>
	<path fill="#010101" d="M94.627,136.545h-0.684v-4.437h-1.305v-0.57h3.293v0.57h-1.305V136.545z"/>
	<path fill="#010101" d="M96.67,135.29l-0.626,1.255h-0.737l2.624-5.221l2.624,5.221h-0.737l-0.626-1.255H96.67z M97.931,132.693
		l-0.976,2.025h1.952L97.931,132.693z"/>
	<rect x="104.283" y="130.729" fill="#009FC2" width="0.782" height="6.796"/>
	<path fill="#010101" d="M110.068,135.975h1.669v0.57h-2.354v-5.007h0.686V135.975z"/>
	<path fill="#010101" d="M112.853,136.545h-0.685v-5.007h0.685V136.545z"/>
	<path fill="#010101" d="M113.823,131.538h1.137c1.684,0,3.082,0.808,3.082,2.476c0,1.708-1.369,2.532-3.104,2.532h-1.114V131.538z
		 M114.508,135.975h0.24c1.399,0,2.608-0.479,2.608-1.935c0-1.461-1.209-1.932-2.608-1.932h-0.24V135.975z"/>
	<path fill="#010101" d="M124.099,134.04c0,1.488-1.29,2.612-2.878,2.612c-1.589,0-2.879-1.124-2.879-2.612
		c0-1.435,1.305-2.609,2.879-2.609C122.794,131.431,124.099,132.605,124.099,134.04z M123.415,134.04
		c0-1.102-0.903-2.025-2.193-2.025c-1.289,0-2.194,0.923-2.194,2.025c0,1.143,1.006,2.027,2.194,2.027
		C122.408,136.067,123.415,135.183,123.415,134.04z"/>
	<path fill="#010101" d="M129.887,131.538h0.896l-2.47,2.25l2.514,2.757h-0.926l-2.069-2.332l-0.276,0.239v2.092h-0.685v-5.007
		h0.685v2.171L129.887,131.538z"/>
	<path fill="#010101" d="M131.244,131.538h2.951v0.57h-2.266v1.4h2.202v0.573h-2.202v1.893h2.266v0.57h-2.951V131.538z"/>
	<path fill="#010101" d="M134.474,131.538h0.788l1.347,2.138l1.349-2.138h0.787l-1.793,2.829v2.178h-0.685v-2.178L134.474,131.538z"
		/>
	<rect x="142.488" y="130.729" fill="#009FC2" width="0.78" height="6.796"/>
	<path fill="#010101" d="M150.029,132.487c-0.204-0.312-0.467-0.472-0.882-0.472c-0.438,0-0.919,0.273-0.919,0.711
		c0,0.392,0.423,0.599,0.766,0.717l0.395,0.14c0.779,0.279,1.361,0.671,1.361,1.507c0,0.91-0.771,1.562-1.756,1.562
		c-0.89,0-1.581-0.6-1.699-1.403l0.693-0.131c-0.006,0.551,0.473,0.949,1.064,0.949c0.59,0,1.013-0.452,1.013-0.977
		c0-0.538-0.475-0.771-0.946-0.949l-0.38-0.146c-0.626-0.245-1.195-0.571-1.195-1.269c0-0.811,0.787-1.295,1.617-1.295
		c0.612,0,1.115,0.272,1.414,0.757L150.029,132.487z"/>
	<path fill="#010101" d="M152.165,136.545h-0.685v-5.007h0.685V136.545z"/>
	<path fill="#010101" d="M153.194,131.538h2.95v0.57h-2.266v1.4h2.2v0.573h-2.2v1.893h2.266v0.57h-2.95V131.538z"/>
	<path fill="#010101" d="M159.431,132.487c-0.203-0.312-0.466-0.472-0.881-0.472c-0.437,0-0.918,0.273-0.918,0.711
		c0,0.392,0.423,0.599,0.766,0.717l0.393,0.14c0.779,0.279,1.363,0.671,1.363,1.507c0,0.91-0.773,1.562-1.756,1.562
		c-0.889,0-1.582-0.6-1.698-1.403l0.691-0.131c-0.007,0.551,0.475,0.949,1.064,0.949s1.014-0.452,1.014-0.977
		c0-0.538-0.475-0.771-0.948-0.949l-0.378-0.146c-0.628-0.245-1.195-0.571-1.195-1.269c0-0.811,0.787-1.295,1.617-1.295
		c0.611,0,1.114,0.272,1.414,0.757L159.431,132.487z"/>
	<path fill="#010101" d="M162.383,136.545h-0.685v-4.437h-1.304v-0.57h3.294v0.57h-1.306V136.545z"/>
	<path fill="#010101" d="M164.426,135.29l-0.627,1.255h-0.734l2.623-5.221l2.622,5.221h-0.735l-0.626-1.255H164.426z
		 M165.688,132.693l-0.978,2.025h1.954L165.688,132.693z"/>
	<path fill="#010101" d="M173.895,131.538h0.896l-2.47,2.25l2.515,2.757h-0.927l-2.069-2.332l-0.275,0.239v2.092h-0.686v-5.007
		h0.686v2.171L173.895,131.538z"/>
	<path fill="#010101" d="M175.253,131.538h2.95v0.57h-2.266v1.4h2.2v0.573h-2.2v1.893h2.266v0.57h-2.95V131.538z"/>
	<path fill="#010101" d="M178.482,131.538h0.787l1.348,2.138l1.349-2.138h0.786l-1.792,2.829v2.178h-0.686v-2.178L178.482,131.538z"
		/>
	<rect x="186.496" y="130.729" fill="#009FC2" width="0.78" height="6.796"/>
	<path fill="#010101" d="M193.41,135.243l1.633-3.705h0.749l-2.382,5.272l-2.39-5.272h0.75L193.41,135.243z"/>
	<path fill="#010101" d="M196.26,131.538h2.951v0.57h-2.267v1.4h2.201v0.573h-2.201v1.893h2.267v0.57h-2.951V131.538z"/>
	<path fill="#010101" d="M199.993,131.297l4.124,3.939v-3.699h0.686v5.213l-4.125-3.939v3.733h-0.685V131.297z"/>
	<path fill="#010101" d="M206.445,136.545h-0.686v-5.007h0.686V136.545z"/>
	<path fill="#010101" d="M211.472,132.494c-0.393-0.319-0.933-0.493-1.45-0.493c-1.231,0-2.172,0.937-2.172,2.046
		c0,1.096,0.933,2.033,2.157,2.033c0.539,0,1.056-0.186,1.465-0.518v0.738c-0.423,0.226-0.961,0.352-1.442,0.352
		c-1.567,0-2.864-1.136-2.864-2.585c0-1.481,1.305-2.636,2.922-2.636c0.48,0,0.97,0.107,1.385,0.339V132.494z"/>
	<path fill="#010101" d="M212.291,131.538h2.951v0.57h-2.266v1.4h2.199v0.573h-2.199v1.893h2.266v0.57h-2.951V131.538z"/>
	<line fill="#009FC2" stroke="#000000" stroke-width="0.3133" x1="3.887" y1="120.686" x2="215.25" y2="120.686"/>
</g>
<g>
	<path d="M117.324,108.468l2.013-4.354h1.506l-3.519,7.216l-3.503-7.216h1.505L117.324,108.468z"/>
	<path d="M123.467,100.924c0,0.507-0.417,0.909-0.924,0.909s-0.925-0.402-0.925-0.909c0-0.522,0.418-0.939,0.925-0.939
		S123.467,100.402,123.467,100.924z M123.214,111.091h-1.342v-6.977h1.342V111.091z"/>
	<path d="M128.165,105.709c-0.164-0.343-0.507-0.611-0.895-0.611c-0.372,0-0.73,0.298-0.73,0.686c0,0.611,0.806,0.879,1.625,1.252
		c0.82,0.373,1.61,0.88,1.61,1.983c0,1.327-1.104,2.311-2.4,2.311c-1.014,0-2.042-0.582-2.415-1.565l1.148-0.522
		c0.283,0.522,0.626,0.895,1.267,0.895c0.566,0,1.059-0.388,1.059-0.984c0-0.373-0.179-0.552-0.492-0.76l-1.312-0.701
		c-0.775-0.417-1.342-0.805-1.342-1.759c0-1.133,0.925-2.027,2.058-2.027c0.85,0,1.535,0.462,1.908,1.222L128.165,105.709z"/>
	<path d="M132.982,100.924c0,0.507-0.417,0.909-0.924,0.909s-0.925-0.402-0.925-0.909c0-0.522,0.418-0.939,0.925-0.939
		S132.982,100.402,132.982,100.924z M132.729,111.091h-1.342v-6.977h1.342V111.091z"/>
	<path d="M136.413,111.091h-1.342v-5.725h-0.73v-1.252h0.73v-2.668h1.342v2.668h1.312v1.252h-1.312V111.091z"/>
	<path d="M141.258,105.709c-0.164-0.343-0.507-0.611-0.895-0.611c-0.372,0-0.73,0.298-0.73,0.686c0,0.611,0.806,0.879,1.625,1.252
		c0.82,0.373,1.61,0.88,1.61,1.983c0,1.327-1.104,2.311-2.4,2.311c-1.014,0-2.042-0.582-2.415-1.565l1.148-0.522
		c0.283,0.522,0.626,0.895,1.267,0.895c0.566,0,1.059-0.388,1.059-0.984c0-0.373-0.179-0.552-0.492-0.76l-1.312-0.701
		c-0.775-0.417-1.342-0.805-1.342-1.759c0-1.133,0.925-2.027,2.058-2.027c0.85,0,1.535,0.462,1.908,1.222L141.258,105.709z"/>
	<path d="M150.727,111.091h-1.342v-1.088h-0.029c-0.537,0.79-1.372,1.327-2.371,1.327c-2.132,0-3.339-1.774-3.339-3.772
		c0-1.908,1.267-3.652,3.295-3.652c1.028,0,1.863,0.537,2.415,1.372h0.029v-1.163h1.342V111.091z M149.459,107.603
		c0-1.357-0.819-2.505-2.266-2.505c-1.387,0-2.206,1.208-2.206,2.505c0,1.312,0.79,2.534,2.206,2.534
		C148.655,110.137,149.459,108.975,149.459,107.603z"/>
	<path d="M153.905,105.248h0.045c0.328-0.82,1.014-1.342,1.908-1.342c0.388,0,0.775,0.134,1.103,0.343l-0.61,1.223
		c-0.239-0.209-0.508-0.283-0.82-0.283c-1.446,0-1.625,1.341-1.625,2.475v3.429h-1.342v-6.977h1.342V105.248z"/>
	<path d="M164.252,111.091h-1.342v-1.088h-0.029c-0.537,0.79-1.372,1.327-2.371,1.327c-2.132,0-3.339-1.774-3.339-3.772
		c0-1.908,1.267-3.652,3.295-3.652c1.028,0,1.863,0.537,2.415,1.372h0.029v-1.163h1.342V111.091z M162.985,107.603
		c0-1.357-0.819-2.505-2.266-2.505c-1.387,0-2.206,1.208-2.206,2.505c0,1.312,0.79,2.534,2.206,2.534
		C162.18,110.137,162.985,108.975,162.985,107.603z"/>
	<path d="M168.801,105.709c-0.164-0.343-0.507-0.611-0.895-0.611c-0.372,0-0.73,0.298-0.73,0.686c0,0.611,0.806,0.879,1.625,1.252
		c0.82,0.373,1.61,0.88,1.61,1.983c0,1.327-1.104,2.311-2.4,2.311c-1.014,0-2.042-0.582-2.415-1.565l1.148-0.522
		c0.283,0.522,0.626,0.895,1.267,0.895c0.566,0,1.059-0.388,1.059-0.984c0-0.373-0.179-0.552-0.492-0.76l-1.312-0.701
		c-0.775-0.417-1.342-0.805-1.342-1.759c0-1.133,0.925-2.027,2.058-2.027c0.85,0,1.535,0.462,1.908,1.222L168.801,105.709z"/>
	<path d="M178.553,107.618c0,2.102-1.64,3.712-3.727,3.712s-3.728-1.61-3.728-3.712s1.641-3.712,3.728-3.712
		S178.553,105.516,178.553,107.618z M172.441,107.618c0,1.312,1.059,2.43,2.386,2.43c1.326,0,2.385-1.118,2.385-2.43
		c0-1.327-1.059-2.43-2.385-2.43C173.5,105.188,172.441,106.291,172.441,107.618z"/>
	<path d="M181.314,111.091h-1.342v-5.725h-0.73v-1.252h0.73v-2.668h1.342v2.668h1.312v1.252h-1.312V111.091z"/>
	<path d="M189.902,111.091h-1.342v-1.088h-0.029c-0.537,0.79-1.372,1.327-2.371,1.327c-2.132,0-3.339-1.774-3.339-3.772
		c0-1.908,1.267-3.652,3.295-3.652c1.028,0,1.863,0.537,2.415,1.372h0.029v-1.163h1.342V111.091z M188.635,107.603
		c0-1.357-0.82-2.505-2.267-2.505c-1.387,0-2.206,1.208-2.206,2.505c0,1.312,0.79,2.534,2.206,2.534
		C187.83,110.137,188.635,108.975,188.635,107.603z"/>
	<path d="M193.75,110.465c0,0.477-0.388,0.865-0.864,0.865c-0.478,0-0.865-0.388-0.865-0.865c0-0.462,0.388-0.865,0.865-0.865
		C193.363,109.601,193.75,110.003,193.75,110.465z"/>
	<path d="M202.786,107.618c0,2.102-1.64,3.712-3.727,3.712s-3.728-1.61-3.728-3.712s1.641-3.712,3.728-3.712
		S202.786,105.516,202.786,107.618z M196.673,107.618c0,1.312,1.059,2.43,2.386,2.43c1.326,0,2.385-1.118,2.385-2.43
		c0-1.327-1.059-2.43-2.385-2.43C197.732,105.188,196.673,106.291,196.673,107.618z"/>
	<path d="M205.442,105.248h0.045c0.328-0.82,1.014-1.342,1.908-1.342c0.388,0,0.775,0.134,1.103,0.343l-0.61,1.223
		c-0.239-0.209-0.508-0.283-0.82-0.283c-1.446,0-1.625,1.341-1.625,2.475v3.429H204.1v-6.977h1.342V105.248z"/>
	<path d="M215.775,110.957c0,2.4-0.686,4.129-3.399,4.129c-1.938,0-3.339-1.192-3.369-3.16h1.342c0,1.252,0.865,1.968,2.087,1.968
		c1.655,0,1.998-1.133,1.998-2.564v-1.327h-0.03c-0.536,0.79-1.386,1.327-2.37,1.327c-2.146,0-3.339-1.774-3.339-3.772
		c0-1.908,1.267-3.652,3.279-3.652c1.044,0,1.879,0.537,2.43,1.401h0.03v-1.193h1.342V110.957z M214.507,107.603
		c0-1.357-0.819-2.505-2.266-2.505c-1.387,0-2.206,1.208-2.206,2.505c0,1.312,0.79,2.534,2.206,2.534
		C213.703,110.137,214.507,108.975,214.507,107.603z"/>
</g>
</svg>
